<svg xmlns="http://www.w3.org/2000/svg" version="1.1" xmlns:xlink="http://www.w3.org/1999/xlink" xmlns:svgjs="http://svgjs.dev/svgjs" width="128" height="128" viewBox="0 0 128 128"><g transform="matrix(0.8046875,0,0,0.8046875,12.760752631578946,13.970894780926706)"><svg viewBox="0 0 95 93" data-background-color="#ffffff" preserveAspectRatio="xMidYMid meet" height="125" width="128" xmlns="http://www.w3.org/2000/svg" xmlns:xlink="http://www.w3.org/1999/xlink"><g id="tight-bounds" transform="matrix(1,0,0,1,-0.24049999999999727,-0.24396360948749418)"><svg viewBox="0 0 95.481 93.48792721897499" height="93.48792721897499" width="95.481"><g><svg viewBox="0 0 95.481 93.48792721897499" height="93.48792721897499" width="95.481"><g><svg viewBox="0 0 95.481 93.48792721897499" height="93.48792721897499" width="95.481"><g><svg viewBox="0 0 95.481 93.48792721897499" height="93.48792721897499" width="95.481"><g><svg viewBox="0 0 95.481 93.48792721897499" height="93.48792721897499" width="95.481"><g><svg viewBox="0 0 95.481 93.48792721897499" height="93.48792721897499" width="95.481"><g><svg xmlns="http://www.w3.org/2000/svg" xmlns:xlink="http://www.w3.org/1999/xlink" version="1.1" x="0" y="0" viewBox="2 2.5009766 48 46.9980468" enable-background="new 0 0 52 52" xml:space="preserve" height="93.48792721897499" width="95.481" class="icon-icon-0" data-fill-palette-color="accent" id="icon-0"><g fill="#8d021f" data-fill-palette-color="accent"><path d="M2 2.501v7.998h48V2.501H2zM7.997 7.499h-2v-2h2V7.499zM11.997 7.499h-2v-2h2V7.499zM15.997 7.499h-2v-2h2V7.499z" fill="#8d021f" data-fill-palette-color="accent"></path><polygon points="2,39.5009766 9.7440186,39.5009766 7.1569824,24.3012695 18.5446777,33.237793 25.9968262,20.6586914    33.4489746,33.237793 44.8366699,24.3012695 42.2496338,39.5009766 50,39.5009766 50,12.4985352 2,12.4985352  " fill="#8d021f" data-fill-palette-color="accent"></polygon><polygon points="25.9967651,24.5820313 19.1034546,36.2182617 9.9975586,29.0722656 12.3143311,42.6811523 39.6791382,42.6811523    41.9959106,29.0722656 32.8900146,36.2182617  " fill="#8d021f" data-fill-palette-color="accent"></polygon><polygon points="13.4749756,49.4990234 25.9967651,49.4990234 38.5184937,49.4990234 39.3386841,44.6811523 12.6547852,44.6811523     " fill="#8d021f" data-fill-palette-color="accent"></polygon></g></svg></g></svg></g></svg></g></svg></g></svg></g></svg></g><defs></defs></svg><rect width="95.481" height="93.48792721897499" fill="none" stroke="none" visibility="hidden"></rect></g></svg></g></svg>