<svg xmlns="http://www.w3.org/2000/svg" version="1.1" xmlns:xlink="http://www.w3.org/1999/xlink" xmlns:svgjs="http://svgjs.dev/svgjs" width="1000" height="191" viewBox="0 0 1000 191"><g transform="matrix(1,0,0,1,-0.6060606060606233,0.4788556024366244)"><svg viewBox="0 0 396 76" data-background-color="#ffffff" preserveAspectRatio="xMidYMid meet" height="191" width="1000" xmlns="http://www.w3.org/2000/svg" xmlns:xlink="http://www.w3.org/1999/xlink"><g id="tight-bounds" transform="matrix(1,0,0,1,0.2400000000000091,-0.1905394020166682)"><svg viewBox="0 0 395.52 76.3809609330952" height="76.3809609330952" width="395.52"><g><svg viewBox="0 0 515.4115167841958 99.53384639957775" height="76.3809609330952" width="395.52"><g transform="matrix(1,0,0,1,119.89151678419577,28.208536933694457)"><svg viewBox="0 0 395.52 43.11677253218884" height="43.11677253218884" width="395.52"><g><svg viewBox="0 0 395.52 43.11677253218884" height="43.11677253218884" width="395.52"><g><svg viewBox="0 0 395.52 43.11677253218884" height="43.11677253218884" width="395.52"><g transform="matrix(1,0,0,1,0,0)"><svg width="395.52" viewBox="4.4 -37.6 357.13 38.1" height="43.11677253218884" data-palette-color="#2260bf"><g class="undefined-text-0" data-fill-palette-color="primary" id="text-0"><path d="M32.05-1.05L32.05-1.05Q32.2-0.65 32.02-0.33 31.85 0 31.45 0L31.45 0 26.6 0Q26 0 25.7-0.7L25.7-0.7 19.6-15.9Q19.35-16.5 18.35-16.5L18.35-16.5 11.05-16.5Q10.7-16.5 10.58-16.32 10.45-16.15 10.45-15.95L10.45-15.95 10.45-0.9Q10.45 0 9.5 0L9.5 0 5.25 0Q4.75 0 4.58-0.2 4.4-0.4 4.4-0.8L4.4-0.8 4.4-36.35Q4.4-37.1 5.1-37.1L5.1-37.1 19.55-37.1Q25.7-37.1 29.13-34.6 32.55-32.1 32.55-27.3L32.55-27.3Q32.55-24.55 31.5-22.58 30.45-20.6 28.83-19.38 27.2-18.15 25.35-17.6L25.35-17.6Q25-17.45 25.15-17L25.15-17 32.05-1.05ZM18.35-20.75L18.35-20.75Q22.25-20.75 24.28-22.23 26.3-23.7 26.3-26.85L26.3-26.85Q26.3-29.85 24.45-31.35 22.6-32.85 19.2-32.85L19.2-32.85 11.25-32.85Q10.45-32.85 10.45-32.25L10.45-32.25 10.45-21.45Q10.45-20.75 11-20.75L11-20.75 18.35-20.75ZM54.4 0.5L54.4 0.5Q49.35 0.5 45.7-1.73 42.05-3.95 40.1-8.18 38.15-12.4 38.15-18.4L38.15-18.4Q38.15-24.45 40.15-28.75 42.15-33.05 45.8-35.33 49.45-37.6 54.45-37.6L54.45-37.6Q59.4-37.6 63.02-35.33 66.65-33.05 68.62-28.78 70.6-24.5 70.6-18.45L70.6-18.45Q70.6-12.45 68.65-8.22 66.7-4 63.05-1.75 59.4 0.5 54.4 0.5L54.4 0.5ZM54.45-3.95L54.45-3.95Q59.45-3.95 61.87-7.43 64.3-10.9 64.3-18.4L64.3-18.4Q64.3-26 61.82-29.6 59.35-33.2 54.45-33.2L54.45-33.2Q49.45-33.2 46.95-29.58 44.45-25.95 44.45-18.4L44.45-18.4Q44.45-10.95 46.95-7.45 49.45-3.95 54.45-3.95L54.45-3.95ZM105.75-37.1L105.75-37.1Q106.2-37.1 106.32-36.88 106.45-36.65 106.25-36.3L106.25-36.3 94.4-16.6Q94.15-16.3 94.1-15.93 94.05-15.55 94.05-14.65L94.05-14.65 94.05-1Q94.05 0 92.95 0L92.95 0 88.9 0Q88.4 0 88.22-0.2 88.05-0.4 88.05-0.85L88.05-0.85 88.05-14.6Q88.05-15.15 87.92-15.45 87.8-15.75 87.6-16.1L87.6-16.1 75.6-36.15Q75.35-36.55 75.5-36.83 75.65-37.1 76.2-37.1L76.2-37.1 81-37.1Q81.55-37.1 81.75-36.95 81.95-36.8 82.2-36.4L82.2-36.4 90.9-21.35Q91.2-20.8 91.45-20.8 91.7-20.8 91.95-21.25L91.95-21.25 100.6-36.4Q100.85-36.85 101.05-36.98 101.25-37.1 101.75-37.1L101.75-37.1 105.75-37.1ZM110.89 0L110.89 0Q110.54 0 110.39-0.3 110.24-0.6 110.39-1.05L110.39-1.05 123.14-36.3Q123.29-36.75 123.54-36.93 123.79-37.1 124.24-37.1L124.24-37.1 129.29-37.1Q130.24-37.1 130.54-36.25L130.54-36.25 143.19-1Q143.34-0.65 143.19-0.33 143.04 0 142.64 0L142.64 0 137.94 0Q137.29 0 137.09-0.6L137.09-0.6 133.89-9.5Q133.84-9.75 133.72-9.85 133.59-9.95 133.29-9.95L133.29-9.95 119.44-9.95Q118.99-9.95 118.84-9.55L118.84-9.55 115.59-0.5Q115.49-0.25 115.32-0.13 115.14 0 114.74 0L114.74 0 110.89 0ZM120.84-14.65L131.74-14.65Q132.39-14.65 132.14-15.35L132.14-15.35 126.74-30.35Q126.54-30.75 126.37-30.75 126.19-30.75 126.04-30.3L126.04-30.3 120.49-15.3Q120.24-14.65 120.84-14.65L120.84-14.65ZM149.69-36.35L149.69-36.35Q149.69-37.1 150.39-37.1L150.39-37.1 155.09-37.1Q155.74-37.1 155.74-36.35L155.74-36.35 155.74-5.1Q155.74-4.55 156.24-4.55L156.24-4.55 173.14-4.55Q173.84-4.55 173.84-3.95L173.84-3.95 173.84-0.65Q173.84-0.35 173.67-0.18 173.49 0 173.14 0L173.14 0 150.54 0Q150.04 0 149.87-0.2 149.69-0.4 149.69-0.8L149.69-0.8 149.69-36.35ZM200.69-29.6L200.69-29.6Q199.39-31.05 197.49-32.1 195.59-33.15 192.54-33.15L192.54-33.15Q188.99-33.15 187.01-31.68 185.04-30.2 185.04-27.6L185.04-27.6Q185.04-26.9 185.39-25.95 185.74-25 186.81-24.13 187.89-23.25 189.94-22.5L189.94-22.5 197.44-20.15Q201.99-18.75 203.96-16.18 205.94-13.6 205.94-10.15L205.94-10.15Q205.94-6.85 204.26-4.45 202.59-2.05 199.51-0.78 196.44 0.5 192.19 0.5L192.19 0.5Q189.04 0.5 186.36-0.23 183.69-0.95 181.61-2.38 179.54-3.8 178.14-5.85L178.14-5.85Q177.94-6.2 177.99-6.5 178.04-6.8 178.44-7.1L178.44-7.1 180.89-8.8Q181.44-9.15 181.74-9.1 182.04-9.05 182.29-8.75L182.29-8.75Q183.54-7.15 184.81-6.05 186.09-4.95 187.76-4.42 189.44-3.9 191.84-3.9L191.84-3.9Q195.59-3.9 197.86-5.23 200.14-6.55 200.14-9.45L200.14-9.45Q200.14-10.6 199.69-11.53 199.24-12.45 198.14-13.23 197.04-14 194.94-14.75L194.94-14.75 187.39-17.2Q184.54-18.15 182.76-19.65 180.99-21.15 180.14-23.05 179.29-24.95 179.29-26.95L179.29-26.95Q179.29-30.15 180.94-32.55 182.59-34.95 185.54-36.27 188.49-37.6 192.44-37.6L192.44-37.6Q195.09-37.6 197.31-36.98 199.54-36.35 201.39-35.23 203.24-34.1 204.54-32.55L204.54-32.55Q204.74-32.3 204.81-32.05 204.89-31.8 204.54-31.5L204.54-31.5 201.69-29.3Q201.39-29.1 201.21-29.18 201.04-29.25 200.69-29.6L200.69-29.6Z" fill="#2260bf" data-fill-palette-color="primary"></path><path d="M207.89-33.2L207.89-36.4Q207.89-36.75 208.07-36.93 208.24-37.1 208.64-37.1L208.64-37.1 236.09-37.1Q236.49-37.1 236.64-36.93 236.79-36.75 236.79-36.4L236.79-36.4 236.79-33.2Q236.79-32.6 236.09-32.6L236.09-32.6 226.19-32.6Q225.64-32.6 225.64-32.15L225.64-32.15 225.64-0.75Q225.64 0 224.99 0L224.99 0 220.29 0Q219.64 0 219.64-0.7L219.64-0.7 219.64-32.05Q219.64-32.6 219.09-32.6L219.09-32.6 208.59-32.6Q207.89-32.6 207.89-33.2L207.89-33.2ZM243.84-37.1L248.54-37.1Q249.19-37.1 249.19-36.35L249.19-36.35 249.19-0.95Q249.19-0.4 248.96-0.2 248.74 0 248.14 0L248.14 0 244.04 0Q243.49 0 243.31-0.18 243.14-0.35 243.14-0.8L243.14-0.8 243.14-36.35Q243.14-37.1 243.84-37.1L243.84-37.1ZM258.84 0L258.84 0Q258.04 0 258.04-0.85L258.04-0.85 258.04-36.35Q258.04-37.1 258.74-37.1L258.74-37.1 265.29-37.1Q265.74-37.1 265.94-36.98 266.14-36.85 266.24-36.5L266.24-36.5 276.24-10.25Q276.44-9.8 276.64-9.83 276.84-9.85 276.99-10.3L276.99-10.3 286.84-36.3Q287.14-37.1 287.74-37.1L287.74-37.1 294.54-37.1Q295.19-37.1 295.19-36.35L295.19-36.35 295.19-0.9Q295.19 0 294.29 0L294.29 0 289.99 0Q289.53 0 289.34-0.18 289.14-0.35 289.14-0.8L289.14-0.8 289.14-28.2Q289.14-28.5 289.01-28.45 288.89-28.4 288.84-28.15L288.84-28.15 278.54-0.7Q278.29 0 277.59 0L277.59 0 274.59 0Q273.79 0 273.54-0.65L273.54-0.65 263.44-27.85Q263.29-28.15 263.19-28.15 263.09-28.15 263.09-27.85L263.09-27.85 263.09-0.7Q263.09-0.35 262.94-0.18 262.79 0 262.34 0L262.34 0 258.84 0ZM303.98-36.35L303.98-36.35Q303.98-37.1 304.68-37.1L304.68-37.1 327.98-37.1Q328.58-37.1 328.58-36.45L328.58-36.45 328.53-33.3Q328.53-32.55 327.78-32.55L327.78-32.55 310.78-32.55Q310.03-32.55 310.03-31.9L310.03-31.9 310.03-21.6Q310.03-20.95 310.68-20.95L310.68-20.95 322.88-20.95Q323.53-20.95 323.53-20.35L323.53-20.35 323.53-17Q323.53-16.75 323.41-16.6 323.28-16.45 322.88-16.45L322.88-16.45 310.63-16.45Q310.03-16.45 310.03-15.9L310.03-15.9 310.03-5.1Q310.03-4.55 310.53-4.55L310.53-4.55 328.48-4.55Q329.18-4.55 329.18-3.95L329.18-3.95 329.18-0.65Q329.18-0.35 329.03-0.18 328.88 0 328.48 0L328.48 0 304.83 0Q303.98 0 303.98-0.8L303.98-0.8 303.98-36.35ZM356.28-29.6L356.28-29.6Q354.98-31.05 353.08-32.1 351.18-33.15 348.13-33.15L348.13-33.15Q344.58-33.15 342.61-31.68 340.63-30.2 340.63-27.6L340.63-27.6Q340.63-26.9 340.98-25.95 341.33-25 342.41-24.13 343.48-23.25 345.53-22.5L345.53-22.5 353.03-20.15Q357.58-18.75 359.56-16.18 361.53-13.6 361.53-10.15L361.53-10.15Q361.53-6.85 359.86-4.45 358.18-2.05 355.11-0.78 352.03 0.5 347.78 0.5L347.78 0.5Q344.63 0.5 341.96-0.23 339.28-0.95 337.21-2.38 335.13-3.8 333.73-5.85L333.73-5.85Q333.53-6.2 333.58-6.5 333.63-6.8 334.03-7.1L334.03-7.1 336.48-8.8Q337.03-9.15 337.33-9.1 337.63-9.05 337.88-8.75L337.88-8.75Q339.13-7.15 340.41-6.05 341.68-4.95 343.36-4.42 345.03-3.9 347.43-3.9L347.43-3.9Q351.18-3.9 353.46-5.23 355.73-6.55 355.73-9.45L355.73-9.45Q355.73-10.6 355.28-11.53 354.83-12.45 353.73-13.23 352.63-14 350.53-14.75L350.53-14.75 342.98-17.2Q340.13-18.15 338.36-19.65 336.58-21.15 335.73-23.05 334.88-24.95 334.88-26.95L334.88-26.95Q334.88-30.15 336.53-32.55 338.18-34.95 341.13-36.27 344.08-37.6 348.03-37.6L348.03-37.6Q350.68-37.6 352.91-36.98 355.13-36.35 356.98-35.23 358.83-34.1 360.13-32.55L360.13-32.55Q360.33-32.3 360.41-32.05 360.48-31.8 360.13-31.5L360.13-31.5 357.28-29.3Q356.98-29.1 356.81-29.18 356.63-29.25 356.28-29.6L356.28-29.6Z" fill="#8d021f" data-fill-palette-color="secondary"></path></g></svg></g></svg></g></svg></g></svg></g><g><svg viewBox="0 0 99.53384639957775 99.53384639957775" height="99.53384639957775" width="99.53384639957775"><g><svg></svg></g><g id="icon-0"><svg viewBox="0 0 99.53384639957775 99.53384639957775" height="99.53384639957775" width="99.53384639957775"><g><path d="M0 49.767c0-27.486 22.281-49.767 49.767-49.767 27.486 0 49.767 22.281 49.767 49.767 0 27.486-22.281 49.767-49.767 49.767-27.486 0-49.767-22.281-49.767-49.767zM49.767 95.646c25.338 0 45.879-20.541 45.879-45.879 0-25.338-20.541-45.879-45.879-45.879-25.338 0-45.879 20.541-45.879 45.879 0 25.338 20.541 45.879 45.879 45.879z" data-fill-palette-color="accent" fill="#8d021f" stroke="transparent"></path></g><g transform="matrix(1,0,0,1,25.460427471078745,25.967801870582235)"><svg viewBox="0 0 48.612991457420264 47.598242658413284" height="47.598242658413284" width="48.612991457420264"><g><svg xmlns="http://www.w3.org/2000/svg" xmlns:xlink="http://www.w3.org/1999/xlink" version="1.1" x="0" y="0" viewBox="2 2.5009766 48 46.9980468" enable-background="new 0 0 52 52" xml:space="preserve" height="47.598242658413284" width="48.612991457420264" class="icon-wb-0" data-fill-palette-color="accent" id="wb-0"><g fill="#8d021f" data-fill-palette-color="accent"><path d="M2 2.501v7.998h48V2.501H2zM7.997 7.499h-2v-2h2V7.499zM11.997 7.499h-2v-2h2V7.499zM15.997 7.499h-2v-2h2V7.499z" fill="#8d021f" data-fill-palette-color="accent"></path><polygon points="2,39.5009766 9.7440186,39.5009766 7.1569824,24.3012695 18.5446777,33.237793 25.9968262,20.6586914    33.4489746,33.237793 44.8366699,24.3012695 42.2496338,39.5009766 50,39.5009766 50,12.4985352 2,12.4985352  " fill="#8d021f" data-fill-palette-color="accent"></polygon><polygon points="25.9967651,24.5820313 19.1034546,36.2182617 9.9975586,29.0722656 12.3143311,42.6811523 39.6791382,42.6811523    41.9959106,29.0722656 32.8900146,36.2182617  " fill="#8d021f" data-fill-palette-color="accent"></polygon><polygon points="13.4749756,49.4990234 25.9967651,49.4990234 38.5184937,49.4990234 39.3386841,44.6811523 12.6547852,44.6811523     " fill="#8d021f" data-fill-palette-color="accent"></polygon></g></svg></g></svg></g></svg></g></svg></g></svg></g><defs></defs></svg><rect width="395.52" height="76.3809609330952" fill="none" stroke="none" visibility="hidden"></rect></g></svg></g></svg>